<?xml version="1.0" standalone="no"?>
<!DOCTYPE svg PUBLIC "-//W3C//DTD SVG 20010904//EN"
 "http://www.w3.org/TR/2001/REC-SVG-20010904/DTD/svg10.dtd">
<svg version="1.0" xmlns="http://www.w3.org/2000/svg"
 width="300.000000pt" height="300.000000pt" viewBox="0 0 300.000000 300.000000"
 preserveAspectRatio="xMidYMid meet">
<metadata>
Created by potrace 1.11, written by Peter Selinger 2001-2013
</metadata>
<g transform="translate(0.000000,300.000000) scale(0.100000,-0.100000)"
fill="#000000" stroke="none">
<path d="M0 1500 l0 -1500 1500 0 1500 0 0 1500 0 1500 -1500 0 -1500 0 0
-1500z m2254 1158 c3 -18 4 -96 1 -173 -6 -178 -13 -650 -20 -1305 -9 -788
-10 -802 -36 -823 -21 -17 -23 -17 -53 3 -17 11 -60 37 -94 58 -35 20 -74 44
-87 52 -13 8 -43 27 -67 41 -108 65 -162 99 -178 114 -9 8 -20 15 -23 15 -4 0
-58 31 -121 70 -63 38 -118 70 -123 70 -4 0 -60 -98 -123 -217 -164 -309 -161
-303 -180 -313 -45 -24 -63 11 -80 160 -29 251 -61 475 -68 481 -6 6 -100 16
-322 35 -30 2 -77 7 -105 10 -27 2 -77 7 -110 9 -33 3 -77 7 -97 11 -36 5 -38
8 -37 42 0 32 8 43 52 81 60 51 186 163 267 237 30 27 239 214 465 414 226
200 437 389 470 419 33 31 76 70 95 86 19 17 82 73 140 124 58 52 160 143 228
204 67 60 122 113 122 118 0 5 17 9 39 9 36 0 39 -2 45 -32z"/>
<path d="M2105 2493 c-22 -20 -74 -66 -115 -102 -41 -35 -82 -72 -90 -81 -8
-9 -51 -48 -95 -85 -44 -38 -82 -72 -85 -75 -3 -4 -48 -44 -100 -90 -106 -92
-227 -199 -310 -276 -30 -27 -118 -106 -195 -174 -77 -68 -142 -127 -145 -130
-3 -4 -43 -40 -90 -80 -47 -40 -89 -79 -95 -85 -5 -7 -62 -57 -125 -111 -147
-128 -170 -149 -170 -161 0 -6 35 -13 78 -17 83 -7 236 -20 373 -31 l87 -8 38
50 c22 28 80 103 129 167 50 64 137 177 195 250 145 185 251 322 275 356 11
15 78 103 149 194 103 133 133 166 152 166 17 0 27 -8 34 -26 10 -26 -12 -94
-75 -229 -13 -27 -35 -81 -50 -120 -15 -38 -41 -101 -57 -140 -17 -38 -41 -97
-55 -130 -13 -33 -28 -69 -33 -80 -5 -11 -27 -65 -50 -120 -23 -55 -50 -118
-61 -141 -10 -23 -19 -45 -19 -49 0 -4 -7 -21 -15 -38 -38 -84 -85 -203 -85
-218 0 -11 23 -31 56 -51 31 -18 67 -40 80 -48 12 -8 60 -37 105 -65 45 -27
94 -58 108 -67 14 -10 42 -27 61 -38 71 -42 157 -95 180 -112 45 -33 41 -88
55 742 14 842 17 1290 9 1290 -5 0 -27 -17 -49 -37z"/>
<path d="M1673 1678 c-43 -58 -123 -162 -178 -233 -55 -71 -129 -167 -165
-214 -73 -96 -159 -207 -203 -263 -32 -41 -33 -47 -8 -233 4 -33 14 -108 22
-167 13 -108 24 -128 45 -85 6 12 26 51 46 87 19 36 56 106 83 155 26 50 54
97 61 106 8 8 14 22 14 30 0 8 4 19 8 24 5 6 15 26 22 45 17 47 38 96 60 145
10 22 21 51 25 65 4 14 14 34 21 45 8 11 14 29 14 40 0 12 4 25 9 31 5 5 19
34 31 64 12 30 34 84 49 120 16 36 36 85 46 110 20 53 44 108 73 170 41 85 6
65 -75 -42z"/>
</g>
</svg>
